{"title":"[JRR] Sword Art Online II - 19 [Eng Subbed] [720p] [10bit] [Anim","uid":11546332,"size":137552220,"categoryP":"video","categoryS":"hd___tv_shows","magnet":"?xt=urn:btih:35d797b4ff9e660531645ef83c3003d71538cc4b&amp;dn=%5BJRR%5D+Sword+Art+Online+II+-+19+%5BEng+Subbed%5D+%5B720p%5D+%5B10bit%5D+%5BAnim&amp;tr=udp%3A%2F%2Ftracker.openbittorrent.com%3A80&amp;tr=udp%3A%2F%2Fopen.demonii.com%3A1337&amp;tr=udp%3A%2F%2Ftracker.coppersurfer.tk%3A6969&amp;tr=udp%3A%2F%2Fexodus.desync.com%3A6969","seeders":1,"leechers":0,"uploader":"JRRtv","files":1,"time":1416733147,"description":"[IMG]http://i.imgur.com/ChcHScX.jpg[/IMG]\n\n[b]General[/b] \nFormat : Matroska \nFormat version : Version 2 \nFile size : 131 MiB \nDuration : 23mn 40s \nOverall bit rate mode : Variable \nOverall bit rate : 775 Kbps \n[b]\nVideo[/b] \nFormat : AVC \nFormat profile : High &lt;a class=&quot;__cf_email__&quot; href=&quot;/cdn-cgi/l/email-protection&quot; data-cfemail=&quot;e4d5d4a4a8d0cad5&quot;&gt;[email&amp;#160;protected]&lt;/a&gt;&lt;script cf-hash='f9e31' type=&quot;text/javascript&quot;&gt;\n/* &lt;![CDATA[ */!function(){try{var t=&quot;currentScript&quot;in document?document.currentScript:function(){for(var t=document.getElementsByTagName(&quot;script&quot;),e=t.length;e--;)if(t[e].getAttribute(&quot;cf-hash&quot;))return t[e]}();if(t&amp;&amp;t.previousSibling){var e,r,n,i,c=t.previousSibling,a=c.getAttribute(&quot;data-cfemail&quot;);if(a){for(e=&quot;&quot;,r=parseInt(a.substr(0,2),16),n=2;a.length-n;n+=2)i=parseInt(a.substr(n,2),16)^r,e+=String.fromCharCode(i);e=document.createTextNode(e),c.parentNode.replaceChild(e,c)}}}catch(u){}}();/* ]]&gt; */&lt;/script&gt; \nBit rate mode : Variable \nBit rate : 678 Kbps \nWidth : 1 280 pixels \nHeight : 720 pixels \nDisplay aspect ratio : 16:9 \nFrame rate mode : Constant \nFrame rate : 23.976 fps \nColor space : YUV \nChroma subsampling : 4:2:0 \nBit depth : 10 bits \nScan type : Progressive \nStream size : 115 MiB (89%) \n\n[b]Audio[/b] \nFormat : Vorbis \nChannel(s) : 2 channels \nSampling rate : 44.1 KHz \nCompression mode : Lossy \nStream size : 13.7 MiB (9%) \nLanguage : Japanese \nDefault : Yes \n\n[b]Subtitles[/b] \nFormat : ASS \nLanguage : English \nSource : [color=green]HorribleSubs[/color]\n\n[b]Screens[/b]\n[IMG]http://i.imgur.com/pdqV0iy.png[/IMG]\n[IMG]http://i.imgur.com/2unUiyu.png[/IMG]\n[IMG]http://i.imgur.com/eQn6Rvn.png[/IMG]\n[IMG]http://i.imgur.com/lryYYsz.png?1[/IMG]","torrent":{"xt":"urn:btih:35d797b4ff9e660531645ef83c3003d71538cc4b","amp;dn":"%5BJRR%5D+Sword+Art+Online+II+-+19+%5BEng+Subbed%5D+%5B720p%5D+%5B10bit%5D+%5BAnim","amp;tr":["udp%3A%2F%2Ftracker.openbittorrent.com%3A80","udp%3A%2F%2Fopen.demonii.com%3A1337","udp%3A%2F%2Ftracker.coppersurfer.tk%3A6969","udp%3A%2F%2Fexodus.desync.com%3A6969"],"infoHash":"35d797b4ff9e660531645ef83c3003d71538cc4b","infoHashBuffer":{"type":"Buffer","data":[53,215,151,180,255,158,102,5,49,100,94,248,60,48,3,215,21,56,204,75]},"announce":[],"urlList":[]}}